<?xml version="1.0" encoding="UTF-8" standalone="no"?>
<!-- Created with Inkscape (http://www.inkscape.org/) -->

<svg
   xmlns:osb="http://www.openswatchbook.org/uri/2009/osb"
   xmlns:dc="http://purl.org/dc/elements/1.1/"
   xmlns:cc="http://creativecommons.org/ns#"
   xmlns:rdf="http://www.w3.org/1999/02/22-rdf-syntax-ns#"
   xmlns:svg="http://www.w3.org/2000/svg"
   xmlns="http://www.w3.org/2000/svg"
   xmlns:xlink="http://www.w3.org/1999/xlink"
   xmlns:sodipodi="http://sodipodi.sourceforge.net/DTD/sodipodi-0.dtd"
   xmlns:inkscape="http://www.inkscape.org/namespaces/inkscape"
   width="712.11987mm"
   height="181.28683mm"
   viewBox="0 1.6 712.11987 181.28683"
   version="1.1"
   id="svg8"
   inkscape:version="0.92.4 (f8dce91, 2019-08-02)"
   sodipodi:docname="beerbucket.svg">
  <defs
     id="defs2">
    <linearGradient
       id="linearGradient2647"
       osb:paint="solid">
      <stop
         style="stop-color:#ec6b1a;stop-opacity:1;"
         offset="0"
         id="stop2645" />
    </linearGradient>
    <filter
       id="filter4590"
       style="color-interpolation-filters:sRGB"
       inkscape:collect="always">
      <feBlend
         id="feBlend4592"
         in2="BackgroundImage"
         mode="normal"
         inkscape:collect="always" />
    </filter>
    <linearGradient
       inkscape:collect="always"
       xlink:href="#linearGradient2647"
       id="linearGradient2667"
       gradientUnits="userSpaceOnUse"
       x1="172.49773"
       y1="153.6694"
       x2="220.18205"
       y2="153.6694" />
  </defs>
  <sodipodi:namedview
     id="base"
     pagecolor="#ffffff"
     bordercolor="#666666"
     borderopacity="1.0"
     inkscape:pageopacity="0.0"
     inkscape:pageshadow="2"
     inkscape:zoom="0.35355339"
     inkscape:cx="1510.671"
     inkscape:cy="582.53887"
     inkscape:document-units="mm"
     inkscape:current-layer="g104"
     showgrid="false"
     showborder="true"
     inkscape:window-width="1850"
     inkscape:window-height="1016"
     inkscape:window-x="70"
     inkscape:window-y="27"
     inkscape:window-maximized="1"
     inkscape:lockguides="false"
     inkscape:snap-global="false"
     units="mm"
     width="209mm"
     viewbox-y="1.6"
     inkscape:pagecheckerboard="false"
     fit-margin-top="0"
     fit-margin-left="0.2"
     fit-margin-right="0"
     fit-margin-bottom="0" />
  <metadata
     id="metadata5">
    <rdf:RDF>
      <cc:Work
         rdf:about="">
        <dc:format>image/svg+xml</dc:format>
        <dc:type
           rdf:resource="http://purl.org/dc/dcmitype/StillImage" />
        <dc:title></dc:title>
      </cc:Work>
    </rdf:RDF>
  </metadata>
  <g
     inkscape:label="Layer 1"
     inkscape:groupmode="layer"
     id="layer1"
     transform="translate(14.429353,-80.024699)">
    <g
       style="enable-background:new"
       id="g104"
       transform="translate(-26.930805,34.151856)">
      <text
         id="text2655"
         y="178.40744"
         x="154.55035"
         style="font-style:normal;font-variant:normal;font-weight:bold;font-stretch:normal;font-size:94.52129364px;line-height:1.25;font-family:sans-serif;-inkscape-font-specification:'sans-serif, Bold';font-variant-ligatures:normal;font-variant-caps:normal;font-variant-numeric:normal;font-feature-settings:normal;text-align:start;letter-spacing:0px;word-spacing:0px;writing-mode:lr-tb;text-anchor:start;opacity:1;fill:none;fill-opacity:1;stroke:#050200;stroke-width:4.96464157;stroke-miterlimit:4;stroke-dasharray:none;stroke-opacity:1;enable-background:new"
         xml:space="preserve"><tspan
           style="font-style:normal;font-variant:normal;font-weight:bold;font-stretch:normal;font-size:94.52129364px;font-family:sans-serif;-inkscape-font-specification:'sans-serif, Bold';font-variant-ligatures:normal;font-variant-caps:normal;font-variant-numeric:normal;font-feature-settings:normal;text-align:start;writing-mode:lr-tb;text-anchor:start;fill:none;fill-opacity:1;stroke:#050200;stroke-width:4.96464157;stroke-miterlimit:4;stroke-dasharray:none;stroke-opacity:1"
           y="178.40744"
           x="154.55035"
           id="tspan2653"
           sodipodi:role="line"><tspan
             id="tspan2651"
             style="font-style:normal;font-variant:normal;font-weight:bold;font-stretch:normal;font-size:94.52129364px;font-family:sans-serif;-inkscape-font-specification:'sans-serif, Bold';font-variant-ligatures:normal;font-variant-caps:normal;font-variant-numeric:normal;font-feature-settings:normal;text-align:start;writing-mode:lr-tb;text-anchor:start;fill:none;fill-opacity:1;stroke:#050200;stroke-width:4.96464157;stroke-miterlimit:4;stroke-dasharray:none;stroke-opacity:1">eerbucket</tspan></tspan></text>
      <g
         style="opacity:1;filter:url(#filter4590)"
         id="layer1-3"
         inkscape:label="Layer 1"
         transform="translate(17.473245,-1.5875)">
        <path
           style="color:#000000;font-style:normal;font-variant:normal;font-weight:normal;font-stretch:normal;font-size:medium;line-height:normal;font-family:sans-serif;font-variant-ligatures:normal;font-variant-position:normal;font-variant-caps:normal;font-variant-numeric:normal;font-variant-alternates:normal;font-feature-settings:normal;text-indent:0;text-align:start;text-decoration:none;text-decoration-line:none;text-decoration-style:solid;text-decoration-color:#000000;letter-spacing:normal;word-spacing:normal;text-transform:none;writing-mode:lr-tb;direction:ltr;text-orientation:mixed;dominant-baseline:auto;baseline-shift:baseline;text-anchor:start;white-space:normal;shape-padding:0;clip-rule:nonzero;display:inline;overflow:visible;visibility:visible;opacity:1;isolation:auto;mix-blend-mode:normal;color-interpolation:sRGB;color-interpolation-filters:linearRGB;solid-color:#000000;solid-opacity:1;vector-effect:none;fill:#000000;fill-opacity:1;fill-rule:nonzero;stroke:none;stroke-width:3.4395833;stroke-linecap:butt;stroke-linejoin:miter;stroke-miterlimit:3.70000005;stroke-dasharray:none;stroke-dashoffset:0;stroke-opacity:1;color-rendering:auto;image-rendering:auto;shape-rendering:auto;text-rendering:auto;enable-background:accumulate"
           d="m 58.199219,62.580078 c -8.278789,0.0095 -15.360335,5.396243 -17.931641,12.945313 -1.131172,-0.296976 -2.288004,-0.51124 -3.488281,-0.511719 h -0.002 c -7.856138,0 -14.28711,6.432923 -14.28711,14.289062 v 0.002 0.0039 0.002 c 0.01251,4.834864 2.555948,9.179979 6.5,11.781256 v 85.23632 c -1.14561,1.34256 -2.060546,2.95076 -2.060546,4.88282 v 8.64258 c 0,2.87912 1.787172,5.17605 3.925781,6.7871 2.119497,1.59667 4.821884,2.81113 8.005859,3.82227 6.376099,2.02483 14.803203,3.18945 24.13086,3.18945 h 7.705078 c 9.327657,0 17.754656,-1.16462 24.130859,-3.18945 3.184009,-1.01112 5.886242,-2.22556 8.005852,-3.82227 2.13868,-1.61105 3.92579,-3.90798 3.92579,-6.7871 v -8.64258 c 0,-1.41157 -0.52733,-2.62323 -1.2168,-3.73047 5.72904,-0.23367 11.08027,-1.50256 15.57617,-3.9707 5.06588,-2.78107 9.94922,-7.84211 9.94922,-14.8418 v -30.89258 c 0,-6.99967 -4.88317,-12.06064 -9.94922,-14.8418 -4.71735,-2.58971 -10.36685,-3.88364 -16.41797,-4.01562 V 98.710938 c 0,-0.481749 -0.17539,-0.899625 -0.27344,-1.34961 2.49692,-2.290001 4.04547,-5.494633 4.05079,-8.980469 v -0.0039 c 0,-6.76135 -5.54139,-12.304691 -12.302736,-12.304687 h -0.002 -0.0039 -0.0039 c -0.298361,8.07e-4 -0.582044,0.05501 -0.875,0.07813 C 92.574322,71.184647 87.447889,67.871267 81.625,67.871094 h -0.002 -0.002 -0.002 c -2.965128,0.0046 -5.736667,1.021767 -8.197266,2.558594 -3.53753,-4.801673 -9.08685,-7.84595 -15.210937,-7.84961 h -0.0059 z m 0.0059,3.439453 c 6.64e-4,0 0.0013,10e-7 0.002,0 v 3.439453 h 0.002 0.002 c 4.843295,0.0045 9.200977,2.858619 11.140624,7.296875 l 2.134766,4.886719 3.572266,-3.96289 C 76.736715,75.817284 79.118282,74.755069 81.625,74.75 c 3.902455,1.15e-4 7.31058,2.514402 8.464844,6.242188 l 1.042968,3.365234 3.339844,-1.123047 c 0.550051,-0.18491 1.125466,-0.280769 1.705078,-0.283203 3.046137,8.45e-4 5.421876,2.379357 5.421876,5.425781 -0.005,2.023986 -1.11929,3.858365 -2.914063,4.794922 l -3.720703,1.941406 2.634765,3.265625 c 0.300781,0.372952 0.220704,0.332585 0.220703,0.332032 v 27.033202 h 5.896488 c 5.46755,0 10.34315,1.16278 14.09179,3.2207 3.68186,2.02126 6.38086,5.04943 6.38086,8.81055 v 30.89258 c 0,3.76115 -2.6988,6.78918 -6.38086,8.81055 -3.74882,2.05803 -8.62444,3.2207 -14.09179,3.2207 h -5.896488 v 8.45898 l 1.212891,1.03125 c 0.886277,0.75379 0.847656,1.03265 0.847656,1.02149 v 8.64258 c 0,-0.0456 -0.0087,0.40646 -1.185547,1.29296 -1.151152,0.86717 -3.248588,1.90216 -5.949218,2.75977 -5.409787,1.71794 -13.307495,2.86719 -22.048828,2.86719 h -7.705078 c -8.741332,0 -16.637218,-1.14926 -22.046876,-2.86719 -2.700577,-0.85762 -4.798163,-1.89265 -5.949218,-2.75977 -1.1768,-0.8865 -1.1875,-1.33854 -1.1875,-1.29296 v -8.64258 c 0,0.0119 -0.0374,-0.26726 0.849609,-1.02149 l 1.212891,-1.03125 V 96.962891 l -2.0625,-0.900391 c -2.698378,-1.180028 -4.42869,-3.816993 -4.439453,-6.761719 v -0.002 c -5e-6,-0.0013 3e-6,-0.0026 0,-0.0039 0.0041,-4.136067 3.269402,-7.399106 7.40625,-7.400391 1.430309,5.72e-4 2.829325,0.414929 4.029297,1.19336 l 4.77539,3.097656 0.521484,-5.669922 c 0.578021,-6.293052 5.786395,-11.049167 12.105469,-11.056641 z m 0.02148,0.002 c 1.459773,0.0026 2.874139,0.236068 4.234376,0.625 -1.359593,-0.386974 -2.7765,-0.62237 -4.234376,-0.625 z m -4.908203,0.84375 c -0.158493,0.05275 -0.326169,0.08296 -0.482421,0.140625 0.157822,-0.05848 0.322297,-0.08717 0.482421,-0.140625 z m 10.517579,0.34375 c 0.846271,0.332683 1.678777,0.672172 2.451171,1.144532 -0.770718,-0.469446 -1.607161,-0.813702 -2.451171,-1.144532 z m -15.033204,2.052735 c -0.158303,0.120696 -0.321089,0.234762 -0.474609,0.361328 0.155255,-0.128508 0.314442,-0.238843 0.474609,-0.361328 z m 18.910157,0.158203 c 0.630172,0.491961 1.238478,0.990319 1.789062,1.576172 -0.548539,-0.582056 -1.161536,-1.087231 -1.789062,-1.576172 z M 81.646521,71.3145 c 1.277587,0.0026 2.50933,0.221133 3.679688,0.595703 -1.171915,-0.371252 -2.403725,-0.593357 -3.679688,-0.595703 z m -3.668005,0.623 c -0.212129,0.06664 -0.424833,0.129096 -0.632813,0.207031 0.210264,-0.07969 0.418356,-0.138966 0.632813,-0.207031 z M 70.707031,72.5 c 0.254931,0.348849 0.57971,0.633994 0.806641,1.005859 l 1.007812,1.652344 1.523438,-1.197265 c 0.02665,-0.02097 0.06109,-0.02809 0.08789,-0.04883 -0.575985,0.445734 -1.134104,0.917659 -1.628906,1.466797 C 72.040968,74.319621 71.371171,73.409 70.707031,72.5 Z m 15.964844,0.04297 c 0.648246,0.299262 1.302319,0.572939 1.886719,0.978515 -0.584312,-0.401396 -1.239301,-0.682254 -1.886719,-0.978515 z m -41.412109,0.49414 c -0.102113,0.153689 -0.198147,0.311229 -0.294922,0.46875 0.09786,-0.1597 0.191597,-0.312965 0.294922,-0.46875 z m 44.703125,1.726563 c 0.419831,0.398175 0.848719,0.770449 1.210937,1.226562 -0.361776,-0.452033 -0.791779,-0.831966 -1.210937,-1.226562 z M 92.25,77.707031 c 0.181148,0.325713 0.437189,0.594971 0.589844,0.939453 l 0.542968,1.22461 1.320313,-0.226563 c 0.495222,-0.08497 0.985281,-0.131267 1.46875,-0.132812 -0.950653,0.0032 -1.894412,0.160167 -2.794922,0.46289 C 93.120581,79.146636 92.659892,78.442674 92.25,77.707031 Z m -49.138672,0.181641 c -0.186766,0.755375 -0.36239,1.51602 -0.435547,2.3125 -0.684889,-0.444293 -1.442044,-0.735676 -2.201172,-1.013672 0.08756,0.03225 0.182483,0.01839 0.269532,0.05273 l 1.847656,0.728516 0.457031,-1.931641 c 0.01266,-0.05353 0.04929,-0.09513 0.0625,-0.148437 z m -6.333984,0.566406 c -2.990845,1.66e-4 -5.704016,1.216047 -7.667969,3.179688 1.963941,-1.964524 4.674872,-3.179688 7.667969,-3.179688 z m 62.845703,1.75586 c 1.060583,0.4493 2.015673,1.099369 2.818363,1.902343 -0.80242,-0.802628 -1.75873,-1.452861 -2.818363,-1.902343 z m -50.285156,6.685546 -2.105469,0.486328 -2.105469,0.484376 c -0.0087,0.002 -0.01088,0.0028 -0.01563,0.0039 -5.61e-4,1.28e-4 -0.0014,-1.21e-4 -0.002,0 -5.28e-4,1.2e-4 -0.0015,-1.14e-4 -0.002,0 -0.0021,4.36e-4 -0.0059,0.002 -0.0059,0.002 -0.0027,6.24e-4 -0.0088,0.0013 -0.01172,0.002 -0.0015,3.44e-4 -0.0041,0.0015 -0.0059,0.002 -2.17e-4,5.1e-5 -0.002,1.1e-5 -0.002,0 8.8e-5,-1.5e-5 -0.0021,0.002 -0.002,0.002 1.24e-4,-2.5e-5 -0.0019,-1.6e-5 -0.002,0 -0.0042,9.88e-4 -0.005,3.8e-4 -0.01172,0.002 -0.0022,5.15e-4 -0.0234,0.0058 -0.02344,0.0059 0,0 -0.03906,0.0098 -0.03906,0.0098 l -5.455078,1.257813 3.734375,4.318359 c 0.02265,0.02618 0.04729,0.05348 0.07227,0.08203 0.188236,0.221447 0.3794,0.435225 0.570312,0.640624 0.0076,0.0087 -0.01749,-0.01816 0.0098,0.01172 l 0.0059,0.0059 0.0078,0.0098 c -0.01046,-0.01077 -0.04025,-0.04198 0.01563,0.01758 l 0.05859,0.0625 -0.300782,0.949219 0.962891,-0.222656 0.462891,0.509765 0.798828,-0.800781 0.710937,-0.164062 c 0.0021,-4.74e-4 0.0054,-0.0014 0.0078,-0.002 l 0.0059,-0.002 c 0.0092,-0.0021 0.01136,-0.0034 0.01367,-0.0039 2.02e-4,-5e-5 0.0038,1.4e-5 0.0039,0 0.04415,-0.01088 0.105714,-0.02685 0.107422,-0.02734 6.9e-5,-1.9e-5 0.06246,-0.01952 0.0625,-0.01953 0,0 0.04687,-0.01563 0.04687,-0.01563 0,0 0.03711,-0.01367 0.03711,-0.01367 0,0 0.05469,-0.02148 0.05469,-0.02148 0,0 -0.122502,-0.286277 -0.216797,-0.507812 l 0.339844,-0.310547 -0.04883,0.01367 0.574218,-0.53125 0.01563,0.01563 0.152344,-0.140626 0.644531,-0.59375 0.226563,-0.210937 -0.710938,-0.175781 -0.03516,-0.02148 -0.568359,-0.447265 1.966797,-0.339844 v 0.380859 l 0.832031,-0.765625 -0.832031,-0.912109 z m -23.404297,2.433594 c 0.0054,1.017275 0.166753,2.007283 0.441406,2.955078 -0.277307,-0.946851 -0.436113,-1.936387 -0.441406,-2.955078 z m 20.068359,2.021484 0.193359,0.216797 c 2.01e-4,0.0021 -2.02e-4,0.0038 0,0.0059 -0.06405,-0.07193 -0.129967,-0.144958 -0.191406,-0.216797 -2.32e-4,-9.96e-4 -0.0017,-0.0049 -0.002,-0.0059 z m 0.875,0.292969 0.0039,0.113281 -0.271484,-0.06641 z m -0.533203,0.0918 c 0.0067,0.0082 0.04892,0.05758 0.101562,0.117188 -0.03594,-0.03867 -0.06822,-0.07663 -0.103515,-0.115235 z m 0.134766,0.128906 0.425781,0.462891 0.002,0.04687 -0.652344,-0.417969 c -0.0028,-0.03685 -0.0031,-0.03818 -0.0059,-0.07422 l 0.228515,0.0059 z m -0.34375,0.01563 0.0918,0.002 c 0.0029,0.02935 0.0029,0.03061 0.0059,0.06055 z m -0.01367,0.04297 0.115234,0.07422 c 0.04329,0.44342 0.08789,0.888672 0.08789,0.888672 0,0 -0.03297,-0.438732 -0.06641,-0.876953 l 0.650391,0.417968 0.05078,1.271485 -0.255859,0.07813 c -0.186561,-0.438302 -0.378906,-0.890625 -0.378906,-0.890625 -1.13e-4,1.7e-5 -0.105098,-0.491286 -0.203125,-0.962891 z m 58.064454,0.04297 c -0.0792,0.17454 -0.13437,0.344783 -0.22461,0.513672 0.0875,-0.165322 0.14767,-0.342946 0.22461,-0.513672 z m -56.271486,1.439453 -0.01172,0.0039 0.0078,0.0078 z m -21.029296,0.05859 c 0.214061,0.504037 0.406953,1.017839 0.693359,1.482422 -0.289593,-0.464663 -0.476954,-0.977899 -0.693359,-1.482422 z m 74.806642,1.75 c -0.0631,0.05089 -0.0877,0.13431 -0.15235,0.183594 l -1.04687,0.798828 0.49804,1.21875 c 0.17904,0.438529 0.26954,0.866971 0.26954,1.294922 0,-0.809762 -0.36303,-1.722222 -0.98243,-2.490235 0.52288,-0.272851 0.96496,-0.643918 1.41407,-1.005859 z m -73.105472,1.0039 c 0.276305,0.326252 0.53326,0.666287 0.847656,0.958984 -0.31711,-0.292854 -0.568907,-0.632599 -0.847656,-0.958984 z m 2.257812,2.003906 c 0.519098,0.344874 1.002154,0.73494 1.585938,0.990235 h 0.002 v 0.01758 L 31.542969,98.740234 C 31.285062,98.597542 31.087142,98.383996 30.84375,98.222656 Z m 66.976562,31.035154 v 1.72071 1.71875 44.49023 h 5.896488 c 4.9495,0 9.30684,-1.08775 12.40234,-2.78711 1.48335,-0.81433 2.53919,-1.66334 3.2832,-2.56445 0.65371,-0.79175 1.27344,-1.90228 1.27344,-3.16797 v -30.89258 c 0,-1.26568 -0.61973,-2.37622 -1.27344,-3.16797 -0.74401,-0.9011 -1.79984,-1.75012 -3.2832,-2.56445 -3.09674,-1.70003 -7.45395,-2.78516 -12.40234,-2.78516 z m 6.880858,6.99414 c 3.44887,0.16203 6.5986,0.99503 8.10547,1.82227 0.6987,0.38357 0.84456,0.56075 0.99024,0.69922 v 28.89648 c -0.14568,0.13847 -0.29154,0.31565 -0.99024,0.69922 -1.50816,0.82794 -4.65758,1.66194 -8.10547,1.82422 z m 12.4961,1.44532 c 2.1e-4,0.029 0.0391,0.0435 0.0391,0.0781 v 0.0645 z m 0.0391,30.90625 v 0.0644 c 0,0.0346 -0.0388,0.0491 -0.0391,0.0781 z m -84.804689,18.96484 c -0.407814,0.34676 -0.652123,0.72462 -0.945313,1.09375 0.159278,-0.19667 0.249053,-0.39651 0.44336,-0.5918 z m 68.828129,0 h 0.002 l 0.5,0.50195 c 0.19421,0.19528 0.28416,0.39516 0.44336,0.5918 -0.29303,-0.36911 -0.53768,-0.74705 -0.94531,-1.09375 z m -70.398442,1.92773 c -0.293468,0.56078 -0.492187,1.13335 -0.492187,1.71485 0,-0.58415 0.187014,-1.1527 0.492187,-1.71485 z m 71.968752,0 c 0.30501,0.56202 0.49023,1.13096 0.49023,1.71485 0,-0.58117 -0.19697,-1.15414 -0.49023,-1.71485 z"
           id="path1057"
           inkscape:connector-curvature="0" />
        <path
           style="color:#000000;font-style:normal;font-variant:normal;font-weight:normal;font-stretch:normal;font-size:medium;line-height:normal;font-family:sans-serif;font-variant-ligatures:normal;font-variant-position:normal;font-variant-caps:normal;font-variant-numeric:normal;font-variant-alternates:normal;font-feature-settings:normal;text-indent:0;text-align:start;text-decoration:none;text-decoration-line:none;text-decoration-style:solid;text-decoration-color:#000000;letter-spacing:normal;word-spacing:normal;text-transform:none;writing-mode:lr-tb;direction:ltr;text-orientation:mixed;dominant-baseline:auto;baseline-shift:baseline;text-anchor:start;white-space:normal;shape-padding:0;clip-rule:nonzero;display:inline;overflow:visible;visibility:visible;opacity:1;isolation:auto;mix-blend-mode:normal;color-interpolation:sRGB;color-interpolation-filters:linearRGB;solid-color:#000000;solid-opacity:1;vector-effect:none;fill:#d45500;fill-opacity:1;fill-rule:nonzero;stroke:none;stroke-width:3.4395833;stroke-linecap:butt;stroke-linejoin:miter;stroke-miterlimit:3.70000005;stroke-dasharray:none;stroke-dashoffset:0;stroke-opacity:1;color-rendering:auto;image-rendering:auto;shape-rendering:auto;text-rendering:auto;enable-background:accumulate"
           d="m 58.206931,64.298982 c -8.110462,0.0068 -15.010977,5.647928 -16.83153,13.341821 -1.460534,-0.576305 -3.012857,-0.905772 -4.597652,-0.906405 h -5.17e-4 c -6.920583,0 -12.567708,5.647124 -12.567708,12.567709 v 0.0021 0.0026 c 0.01186,4.584735 2.541346,8.746837 6.501412,10.937833 v 86.61177 c -1.220808,1.22699 -2.060856,2.69226 -2.060856,4.35477 v 8.64237 c 0,2.16142 1.353015,3.99164 3.240629,5.41362 1.887614,1.42198 4.423099,2.5828 7.492049,3.55741 6.137901,1.94919 14.425962,3.10833 23.608895,3.10833 h 7.706505 c 9.182934,0 17.470871,-1.15914 23.608895,-3.10833 3.069013,-0.9746 5.604904,-2.13544 7.492567,-3.55741 1.88766,-1.42197 3.24063,-3.25217 3.24063,-5.41362 v -8.64237 c 0,-1.66191 -0.83959,-3.12685 -2.05982,-4.35374 v -0.9989 h 0.73638 c 6.19053,0 11.90299,-1.29275 16.57419,-3.85713 4.71082,-2.58615 9.05784,-7.13836 9.05784,-13.33356 v -30.89217 c 0,-6.1952 -4.34693,-10.74788 -9.05784,-13.33407 -4.67129,-2.56443 -10.38376,-3.85661 -16.57419,-3.85661 h -0.73638 V 98.710833 c 0,-0.677299 -0.1473,-1.330505 -0.39843,-1.945616 2.59191,-1.977478 4.17245,-5.061165 4.17752,-8.38657 v -0.001 -0.0016 c 0,-5.824646 -4.75869,-10.583336 -10.583331,-10.583333 h -0.0026 -0.0021 c -0.59101,0.0016 -1.178951,0.05799 -1.759582,0.157612 -2.223995,-5.018685 -7.199926,-8.359529 -12.787852,-8.359695 h -0.0016 -0.001 c -3.160149,0.0049 -6.191977,1.091795 -8.640299,3.018419 -3.113812,-5.102529 -8.685032,-8.306448 -14.771708,-8.310086 h -0.001 z m 5.18e-4,3.439583 h 0.0026 c 5.521196,0.0043 10.506504,3.268861 12.717571,8.328173 l 1.067636,2.443779 1.785419,-1.981274 c 2.003089,-2.223058 4.851157,-3.493616 7.843449,-3.499011 4.646244,1.37e-4 8.735181,3.014424 10.109462,7.452773 l 0.520898,1.683101 1.669664,-0.561205 c 0.726506,-0.244229 1.487686,-0.370191 2.254128,-0.372586 3.964774,0.0011 7.141684,3.178696 7.141684,7.14375 -0.005,2.659764 -1.48088,5.089477 -3.839044,6.320028 l -1.860351,0.970481 1.31723,1.633492 c 0.460087,0.570482 0.603065,1.006163 0.603065,1.410767 v 25.313697 h 4.17597 c 5.70938,0 10.86078,1.20425 14.91847,3.43183 4.01807,2.20583 7.27398,5.74251 7.27398,10.31927 v 30.89217 c 0,4.57677 -3.25582,8.11287 -7.27398,10.31875 -4.05778,2.22764 -9.20919,3.43235 -14.91847,3.43235 h -4.17597 v 5.94486 l 0.60565,0.51521 c 1.09987,0.93545 1.45418,1.70036 1.45418,2.33216 v 8.64237 c 0,0.70816 -0.46554,1.608 -1.870695,2.6665 -1.405149,1.0585 -3.636219,2.12828 -6.463686,3.02617 -5.65494,1.79579 -13.678313,2.94711 -22.568133,2.94711 h -7.706505 c -8.88982,0 -16.912814,-1.15133 -22.567615,-2.94711 -2.827401,-0.89789 -5.058586,-1.96768 -6.463688,-3.02617 -1.405102,-1.05849 -1.870687,-1.95831 -1.870687,-2.6665 v -8.64237 c 0,-0.63177 0.354683,-1.39689 1.455209,-2.33267 l 0.605647,-0.5147 V 98.088133 l -1.030945,-0.45062 c -3.318707,-1.451305 -5.460072,-4.715488 -5.470467,-8.337475 0.0011,-5.06054 4.06686,-9.125776 9.127609,-9.126056 1.762054,7.04e-4 3.485782,0.511238 4.964037,1.470194 l 2.387968,1.54926 0.26045,-2.834971 c 0.657553,-7.158945 6.629496,-12.612536 13.818278,-12.6199 z M 47.618948,89.058193 45.51365,89.542917 c -0.06576,0.01514 -0.07074,0.01637 -0.0155,0.0036 l -2.781226,0.641824 1.86707,2.159039 c 0.02164,0.02502 0.04333,0.05003 0.06511,0.07493 0.173744,0.20515 0.353294,0.405546 0.536402,0.602549 0.0067,0.0074 0.01288,0.01533 0.01964,0.02274 l 5.17e-4,-5.18e-4 c 0.0048,0.0052 0.0091,0.01085 0.01395,0.01602 l 0.591178,-0.545703 -0.01705,-0.01344 0.867647,-0.801503 -0.01344,0.04134 0.871265,-0.804601 0.09974,0.280085 v -0.37207 l 0.12764,-0.117822 c -0.04387,-0.04809 -0.08445,-0.0991 -0.12764,-0.147796 z m -1.344104,3.828706 -0.0036,0.01137 c 0.06512,-0.01503 0.06931,-0.01648 0.01344,-0.0036 z M 99.540842,130.9776 v 1.71979 42.77051 h 4.175968 c 4.69009,0 8.81542,-1.06117 11.57397,-2.57555 1.34358,-0.7376 2.21377,-1.45848 2.78537,-2.15077 0.57159,-0.69229 0.88004,-1.2245 0.88004,-2.07378 v -30.89217 c 0,-0.84927 -0.30845,-1.38148 -0.88004,-2.07377 -0.5716,-0.69229 -1.44179,-1.41318 -2.78537,-2.15078 -2.75922,-1.51474 -6.88442,-2.57348 -11.57397,-2.57348 z m 3.439588,3.43958 h 0.73638 c 4.14847,0 7.87446,1.02671 9.91826,2.14871 1.05793,0.58078 1.57428,1.06539 1.78904,1.3255 0.0784,0.095 0.0816,0.13767 0.0925,0.17776 v 30.30513 c -0.0109,0.0401 -0.0141,0.0828 -0.0925,0.17777 -0.21476,0.26011 -0.73111,0.74472 -1.78904,1.3255 -2.04447,1.12236 -5.77032,2.15077 -9.91826,2.15077 h -0.73638 z"
           id="path1038"
           inkscape:connector-curvature="0" />
        <path
           style="opacity:1;fill:#ffb100;fill-opacity:1;stroke:none;stroke-width:18.0019989;stroke-miterlimit:3.70000005;stroke-dasharray:none;stroke-opacity:1"
           d="m 169.26562,464.91992 a 60.157004,59.284678 0 0 1 -3.24609,4.95508 60.157004,59.284678 0 0 1 -0.0703,0.0937 60.157004,59.284678 0 0 1 -3.63281,4.49414 60.157004,59.284678 0 0 1 -0.004,0.004 60.157004,59.284678 0 0 1 -0.25781,0.27343 60.157004,59.284678 0 0 1 -0.0117,0.0117 60.157004,59.284678 0 0 1 -1.00391,1.01172 60.157004,59.284678 0 0 1 -2.88476,2.91602 60.157004,59.284678 0 0 1 -0.42774,0.37304 60.157004,59.284678 0 0 1 -0.0156,0.0117 60.157004,59.284678 0 0 1 -3.55274,2.9375 60.157004,59.284678 0 0 1 -0.54297,0.44922 60.157004,59.284678 0 0 1 -0.74414,0.52344 60.157004,59.284678 0 0 1 -0.006,0.004 60.157004,59.284678 0 0 1 -4.15234,2.7871 60.157004,59.284678 0 0 1 -0.006,0.004 60.157004,59.284678 0 0 1 -1.0332,0.58203 60.157004,59.284678 0 0 1 -4.17578,2.23828 60.157004,59.284678 0 0 1 -1.3086,0.57813 60.157004,59.284678 0 0 1 -0.0371,0.0156 60.157004,59.284678 0 0 1 -2.16601,0.89453 60.157004,59.284678 0 0 1 -1.94336,0.80469 60.157004,59.284678 0 0 1 -1.75391,0.57617 60.157004,59.284678 0 0 1 -3.88281,1.17579 60.157004,59.284678 0 0 1 -2.18945,0.48437 60.157004,59.284678 0 0 1 -0.0254,0.006 60.157004,59.284678 0 0 1 -2.70899,0.5332 60.157004,59.284678 0 0 1 -0.88476,0.17578 60.157004,59.284678 0 0 1 -2.53907,0.30274 60.157004,59.284678 0 0 1 -0.0273,0.004 60.157004,59.284678 0 0 1 -3.07031,0.29688 60.157004,59.284678 0 0 1 -0.44727,0.043 60.157004,59.284678 0 0 1 -3.30078,0.11523 60.157004,59.284678 0 0 1 -3.19727,-0.1582 60.157004,59.284678 0 0 1 -0.0527,-0.002 60.157004,59.284678 0 0 1 -3.02539,-0.17578 60.157001,59.284674 0 0 1 -0.01,-0.002 60.157004,59.284678 0 0 1 -2.88281,-0.43164 60.157004,59.284678 0 0 1 -3.04101,-0.48242 60.157001,59.284674 0 0 1 -0.006,-0.002 60.157004,59.284678 0 0 1 -2.92383,-0.73633 60.157004,59.284678 0 0 1 -2.876954,-0.75195 60.157001,59.284674 0 0 1 -0.0059,-0.002 60.157004,59.284678 0 0 1 -2.75,-0.99218 60.157001,59.284674 0 0 1 -0.121094,-0.043 60.157004,59.284678 0 0 1 -2.765624,-1.02344 60.157004,59.284678 0 0 1 -2.675782,-1.27539 60.157001,59.284674 0 0 1 -0.002,-0.002 60.157004,59.284678 0 0 1 -0.111328,-0.0547 60.157004,59.284678 0 0 1 -2.619141,-1.27539 60.157004,59.284678 0 0 1 -2.537109,-1.53516 60.157004,59.284678 0 0 1 -2.566406,-1.58203 60.157004,59.284678 0 0 1 -2.396485,-1.79883 60.157004,59.284678 0 0 1 -2.373046,-1.81055 60.157001,59.284674 0 0 1 -0.0059,-0.004 60.157004,59.284678 0 0 1 -2.136719,-1.9668 60.157001,59.284674 0 0 1 -0.06836,-0.0605 60.157004,59.284678 0 0 1 -2.021484,-1.89062 60.157004,59.284678 0 0 1 -0.142578,-0.13477 60.157004,59.284678 0 0 1 -1.970704,-2.21289 60.157004,59.284678 0 0 1 -2.15039,-2.45703 c -29.674938,6.74186 -48.990235,17.83167 -48.990235,30.42578 v 335.83985 c -5.032848,4.27947 -7.789062,8.9173 -7.789062,13.76757 v 32.66407 c 0,21.69158 54.98845,39.15429 123.294921,39.15429 h 29.12695 c 68.30647,0 123.29688,-17.46271 123.29688,-39.15429 v -32.66407 c 0,-4.84923 -2.75436,-9.4869 -7.78516,-13.76562 v -12.96484 h 9.2832 c 22.48781,0 43.01797,-4.71961 59.51368,-13.77539 16.49571,-9.05579 30.86328,-24.34081 30.86328,-44.69727 V 649.80469 c 0,-20.35646 -14.36757,-35.64344 -30.86328,-44.69922 -16.49571,-9.05579 -37.02587,-13.77344 -59.51368,-13.77344 h -9.2832 V 502.1582 c 0,-20.14931 -49.39844,-36.45701 -111.66211,-37.23828 a 60.157004,59.284678 0 0 0 -0.002,0 z m 111.66602,165.69141 h 9.2832 c 16.70177,0 31.53866,3.94101 40.61524,8.92383 9.07657,4.98285 10.48242,9.11178 10.48242,10.26953 V 766.5625 c 0,1.15774 -1.40585,5.28668 -10.48242,10.26953 -9.07658,4.98282 -23.91347,8.93164 -40.61524,8.93164 h -9.2832 z"
           transform="matrix(0.26458333,0,0,0.26458333,26.930805,-34.151856)"
           id="rect5027"
           inkscape:connector-curvature="0" />
        <path
           inkscape:connector-curvature="0"
           id="path4605"
           d="m 47.698057,102.43771 c -2.555416,0 -4.864128,0.36166 -6.71797,1.05265 -0.926924,0.3455 -1.748236,0.76149 -2.468545,1.39837 -0.720309,0.63688 -1.430299,1.66566 -1.430299,2.97294 v 80.43334 c 0,1.30728 0.70999,2.33606 1.430299,2.97294 0.720309,0.63688 1.541621,1.05287 2.468545,1.39837 1.853842,0.69099 4.162554,1.05264 6.71797,1.05264 2.555414,0 4.864126,-0.36165 6.717967,-1.05264 0.926925,-0.3455 1.748237,-0.76149 2.468546,-1.39837 0.148336,-0.13115 0.292653,-0.28928 0.434007,-0.45268 0.141431,0.16351 0.286069,0.32145 0.434493,0.45268 0.720308,0.63688 1.541622,1.05287 2.468543,1.39837 1.853842,0.69099 4.162557,1.05264 6.71797,1.05264 2.555415,0 4.864133,-0.36165 6.717969,-1.05264 0.926924,-0.3455 1.748235,-0.76149 2.468544,-1.39837 0.117685,-0.10405 0.23023,-0.23467 0.344313,-0.35915 0.167058,0.20503 0.345111,0.38789 0.524187,0.54622 0.720309,0.63688 1.541623,1.05287 2.468545,1.39837 1.853842,0.69097 4.162556,1.05264 6.717968,1.05264 2.555415,0 4.86413,-0.36167 6.717972,-1.05264 0.926919,-0.3455 1.748233,-0.76149 2.468542,-1.39837 0.720309,-0.63688 1.4303,-1.66567 1.4303,-2.97294 v -80.43334 c 0,-1.30728 -0.709991,-2.33606 -1.4303,-2.97295 -0.720309,-0.63687 -1.541623,-1.05286 -2.468542,-1.39836 -1.853842,-0.69099 -4.162557,-1.05265 -6.717972,-1.05265 -2.555415,0 -4.864126,0.36166 -6.717968,1.05265 -0.926922,0.3455 -1.748236,0.76149 -2.468545,1.39836 -0.117683,0.10406 -0.230229,0.23468 -0.344314,0.35916 -0.167053,-0.20503 -0.34511,-0.38789 -0.524186,-0.54622 -0.720309,-0.63688 -1.54162,-1.05287 -2.468544,-1.39837 -1.853836,-0.69099 -4.162554,-1.05265 -6.717969,-1.05265 -2.555416,0 -4.864128,0.36166 -6.71797,1.05265 -0.926921,0.3455 -1.748235,0.76149 -2.468543,1.39837 -0.148424,0.13123 -0.293062,0.28917 -0.434493,0.45268 -0.141354,-0.1634 -0.285671,-0.32153 -0.434007,-0.45268 -0.720309,-0.63688 -1.541621,-1.05287 -2.468546,-1.39837 -1.853841,-0.69099 -4.162553,-1.05265 -6.717967,-1.05265 z"
           style="color:#000000;font-style:normal;font-variant:normal;font-weight:normal;font-stretch:normal;font-size:medium;line-height:normal;font-family:sans-serif;font-variant-ligatures:normal;font-variant-position:normal;font-variant-caps:normal;font-variant-numeric:normal;font-variant-alternates:normal;font-feature-settings:normal;text-indent:0;text-align:start;text-decoration:none;text-decoration-line:none;text-decoration-style:solid;text-decoration-color:#000000;letter-spacing:normal;word-spacing:normal;text-transform:none;writing-mode:lr-tb;direction:ltr;text-orientation:mixed;dominant-baseline:auto;baseline-shift:baseline;text-anchor:start;white-space:normal;shape-padding:0;clip-rule:nonzero;display:inline;overflow:visible;visibility:visible;opacity:1;isolation:auto;mix-blend-mode:normal;color-interpolation:sRGB;color-interpolation-filters:linearRGB;solid-color:#000000;solid-opacity:1;vector-effect:none;fill:#f9f9f9;fill-opacity:1;fill-rule:nonzero;stroke:none;stroke-width:4.34503222;stroke-linecap:butt;stroke-linejoin:miter;stroke-miterlimit:4;stroke-dasharray:none;stroke-dashoffset:0;stroke-opacity:1;color-rendering:auto;image-rendering:auto;shape-rendering:auto;text-rendering:auto;enable-background:accumulate" />
        <path
           inkscape:connector-curvature="0"
           id="rect3713"
           d="m 47.616969,104.68667 c -4.738936,0 -8.554037,1.41605 -8.554037,3.175 v 80.43334 c 0,1.75895 3.815101,3.175 8.554037,3.175 4.738937,0 8.554038,-1.41605 8.554038,-3.175 v -80.43334 c 0,-1.75895 -3.815101,-3.175 -8.554038,-3.175 z m 19.322614,0 c -4.738938,0 -8.554038,1.41605 -8.554038,3.175 v 80.43334 c 0,1.75895 3.8151,3.175 8.554038,3.175 4.738938,0 8.554038,-1.41605 8.554038,-3.175 v -80.43334 c 0,-1.75895 -3.8151,-3.175 -8.554038,-3.175 z m 19.322613,0.18707 c -4.738937,0 -8.554037,1.41605 -8.554037,3.175 v 80.43334 c 0,1.75895 3.8151,3.17499 8.554037,3.17499 4.738939,0 8.554037,-1.41604 8.554037,-3.17499 v -80.43334 c 0,-1.75895 -3.815098,-3.175 -8.554037,-3.175 z"
           style="opacity:1;fill:#ffb100;fill-opacity:1;stroke-width:4.09606123;stroke-miterlimit:3.70000005;stroke-dasharray:none" />
        <path
           id="circle5038"
           transform="scale(0.26458333)"
           d="m 139,296.51953 a 41,41 0 0 0 -41,41 41,41 0 0 0 27.42773,38.63672 v -1.11133 c 0,-13.3821 21.58491,-25.05878 54.08789,-31.58203 A 41,41 0 0 0 180,337.51953 a 41,41 0 0 0 -41,-41 z"
           style="opacity:1;fill:#ffffff;fill-opacity:1;stroke:none;stroke-width:11.71349239;stroke-miterlimit:3.70000005;stroke-dasharray:none;stroke-opacity:1"
           inkscape:connector-curvature="0" />
        <path
           style="opacity:1;fill:#ffffff;fill-opacity:1;stroke:none;stroke-width:16.8560009;stroke-miterlimit:3.70000005;stroke-dasharray:none;stroke-opacity:1"
           d="m 118.21484,378.59766 a 58.999999,58.999999 0 0 0 -58.999996,59 58.999999,58.999999 0 0 0 12.476562,36.24609 58.999998,58.999998 0 0 0 46.523434,22.75391 58.999999,58.999999 0 0 0 3.23828,-0.11524 58.999998,58.999998 0 0 0 3.44922,-0.33789 58.999999,58.999999 0 0 0 2.51758,-0.30664 58.999998,58.999998 0 0 0 3.52344,-0.70508 58.999999,58.999999 0 0 0 2.17187,-0.48828 58.999998,58.999998 0 0 0 3.8086,-1.16992 58.999999,58.999999 0 0 0 1.7207,-0.57227 58.999998,58.999998 0 0 0 4.0293,-1.6914 58.999999,58.999999 0 0 0 1.32031,-0.5918 58.999998,58.999998 0 0 0 4.0957,-2.22656 58.999999,58.999999 0 0 0 1.01954,-0.58399 58.999998,58.999998 0 0 0 4.07226,-2.77343 58.999999,58.999999 0 0 0 0.73438,-0.52539 58.999998,58.999998 0 0 0 4.01757,-3.36915 58.999999,58.999999 0 0 0 0.43555,-0.38476 58.999998,58.999998 0 0 0 3.81445,-3.9082 58.999999,58.999999 0 0 0 0.26758,-0.28711 58.999998,58.999998 0 0 0 3.5625,-4.47266 58.999999,58.999999 0 0 0 0.0703,-0.0937 58.999998,58.999998 0 0 0 3.1836,-4.93164 58.999999,58.999999 0 0 0 0.002,0 58.999999,58.999999 0 0 0 7.94531,-29.46484 58.999999,58.999999 0 0 0 -59,-59 z"
           id="path5036"
           transform="matrix(0.26458333,0,0,0.26458333,26.930805,-34.151856)"
           inkscape:connector-curvature="0" />
        <path
           id="circle5040"
           transform="scale(0.26458333)"
           d="m 308.5,269.51953 a 46.499998,46.499998 0 0 0 -46.5,46.5 46.499998,46.499998 0 0 0 5.54297,21.9375 c 28.94864,0.0858 55.25049,3.63807 75.18555,9.45313 A 46.499998,46.499998 0 0 0 355,316.01953 a 46.499998,46.499998 0 0 0 -46.5,-46.5 z"
           style="opacity:1;fill:#ffffff;fill-opacity:1;stroke:none;stroke-width:13.28481483;stroke-miterlimit:3.70000005;stroke-dasharray:none;stroke-opacity:1"
           inkscape:connector-curvature="0" />
        <path
           id="circle5042"
           transform="scale(0.26458333)"
           d="m 363.5,300.51953 a 33.499996,33.499996 0 0 0 -33.5,33.5 33.499996,33.499996 0 0 0 1.75586,10.57227 c 21.34726,4.8357 37.3399,11.98049 44.56055,20.34765 A 33.499996,33.499996 0 0 0 397,334.01953 a 33.499996,33.499996 0 0 0 -33.5,-33.5 z"
           style="opacity:1;fill:#ffffff;fill-opacity:1;stroke:none;stroke-width:9.57078075;stroke-miterlimit:3.70000005;stroke-dasharray:none;stroke-opacity:1"
           inkscape:connector-curvature="0" />
        <path
           style="opacity:1;fill:#000000;fill-opacity:1;stroke:none;stroke-width:16.8560009;stroke-miterlimit:3.70000005;stroke-dasharray:none;stroke-opacity:1"
           d="m 119.14648,386.13477 c -1.47854,-0.0195 -2.9642,0.0292 -4.45117,0.15039 -36.025307,0.50305 -55.407122,41.02912 -44.396482,70.89453 -7.36108,-28.5497 11.371578,-64.19809 44.742192,-64.66407 23.22255,-1.89282 45.89861,14.15456 51.81445,36.68946 2.31975,6.89342 2.81569,13.70148 1.88086,20.16015 0.90597,-3.49758 1.40349,-7.12143 1.42969,-10.82812 3.89549,-14.10258 15.5527,-26.13854 32.8125,-26.29297 14.56335,-1.08915 29.16453,6.86213 35.65429,19.42188 9.0814,14.92814 3.39294,31.65421 -8.32422,42.08007 0.50587,0.11548 1.01197,0.23153 1.51172,0.34961 9.09735,-8.00372 14.98725,-19.72265 14.19922,-31.79687 2.98013,-1.50247 6.47491,-2.40447 10.51367,-2.47266 l 1.6211,-0.0586 2.74218,0.14062 c 24.06104,1.21603 28.37896,31.50989 15.20313,45.35938 17.24945,-11.72322 14.28079,-46.66381 -11.74219,-47.9668 l -2.74609,-0.13867 -1.625,0.0586 c -5.73016,0.0958 -10.38289,1.83413 -13.99414,4.60938 -0.38373,-4.82104 -1.83752,-9.69092 -4.58594,-14.39844 -6.36757,-12.84054 -20.1964,-21.26312 -34.45898,-21.28711 -0.95084,-0.002 -1.90286,0.0351 -2.85547,0.10938 -17.75207,0.16549 -29.84048,12.84535 -34.12305,27.8789 -0.31738,-3.37844 -1.02796,-6.80823 -2.18945,-10.25976 -5.68201,-21.64417 -26.45474,-37.44537 -48.63282,-37.73828 z m -81.80273,47.02929 c -0.78857,-0.004 -1.578214,0.0186 -2.365234,0.0703 -31.89379,0.35086 -39.7051734,43.48839 -18.800782,60.0996 -11.1899595,-20.02247 -1.295468,-52.4966 26.707032,-52.80468 6.45581,-0.42424 13.024995,1.00183 18.703125,4.11132 0.9733,0.46095 1.89548,0.95885 2.78125,1.48243 -2.70257,-3.56052 -6.379178,-6.62217 -11.148438,-8.88086 -4.84548,-2.65351 -10.357023,-4.04789 -15.876953,-4.07813 z m 132.76367,2.9668 c 0.006,0.12247 0.0144,0.24487 0.0195,0.36719 -0.005,-0.12231 -0.0136,-0.24472 -0.0195,-0.36719 z"
           transform="matrix(0.26458333,0,0,0.26458333,26.930805,-34.151856)"
           id="circle5044"
           inkscape:connector-curvature="0" />
        <flowRoot
           xml:space="preserve"
           id="flowRoot1062"
           style="font-style:normal;font-weight:normal;font-size:40px;line-height:1.25;font-family:sans-serif;letter-spacing:0px;word-spacing:0px;fill:#000000;fill-opacity:1;stroke:none"
           transform="matrix(0.26458333,0,0,0.26458333,26.930805,-34.151856)"><flowRegion
             id="flowRegion1064"><rect
               id="rect1066"
               width="578.57141"
               height="200"
               x="465.71429"
               y="620.37683" /></flowRegion><flowPara
             id="flowPara1068" /></flowRoot>      </g>
      <text
         xml:space="preserve"
         style="font-style:normal;font-variant:normal;font-weight:bold;font-stretch:normal;font-size:8.46671867px;line-height:1.25;font-family:sans-serif;-inkscape-font-specification:'sans-serif, Bold';font-variant-ligatures:normal;font-variant-caps:normal;font-variant-numeric:normal;font-feature-settings:normal;text-align:start;letter-spacing:0px;word-spacing:0px;writing-mode:lr-tb;text-anchor:start;opacity:1;fill:#000000;fill-opacity:1;stroke:none;stroke-width:0.26458332;filter:url(#filter4590);enable-background:new"
         x="172.26265"
         y="156.82582"
         id="text1072"
         transform="matrix(11.163864,0,0,11.163864,-1768.5664,-1572.3747)"><tspan
           sodipodi:role="line"
           id="tspan1070"
           x="172.26265"
           y="156.82582"
           style="font-style:normal;font-variant:normal;font-weight:bold;font-stretch:normal;font-size:8.46671867px;font-family:sans-serif;-inkscape-font-specification:'sans-serif, Bold';font-variant-ligatures:normal;font-variant-caps:normal;font-variant-numeric:normal;font-feature-settings:normal;text-align:start;writing-mode:lr-tb;text-anchor:start;stroke-width:0.26458332"><tspan
             style="font-style:normal;font-variant:normal;font-weight:bold;font-stretch:normal;font-size:8.46671867px;font-family:sans-serif;-inkscape-font-specification:'sans-serif, Bold';font-variant-ligatures:normal;font-variant-caps:normal;font-variant-numeric:normal;font-feature-settings:normal;text-align:start;writing-mode:lr-tb;text-anchor:start"
             id="tspan1074">eerbucket</tspan></tspan></text>
      <text
         transform="matrix(11.163864,0,0,11.163864,-1768.5664,-1572.3747)"
         id="text1093"
         y="156.82582"
         x="172.26265"
         style="font-style:normal;font-variant:normal;font-weight:bold;font-stretch:normal;font-size:8.46671867px;line-height:1.25;font-family:sans-serif;-inkscape-font-specification:'sans-serif, Bold';font-variant-ligatures:normal;font-variant-caps:normal;font-variant-numeric:normal;font-feature-settings:normal;text-align:start;letter-spacing:0px;word-spacing:0px;writing-mode:lr-tb;text-anchor:start;opacity:1;fill:#ffb100;fill-opacity:1;stroke:none;stroke-width:0.26458332;filter:url(#filter4590);enable-background:new"
         xml:space="preserve"><tspan
           style="font-style:normal;font-variant:normal;font-weight:bold;font-stretch:normal;font-size:8.46671867px;font-family:sans-serif;-inkscape-font-specification:'sans-serif, Bold';font-variant-ligatures:normal;font-variant-caps:normal;font-variant-numeric:normal;font-feature-settings:normal;text-align:start;writing-mode:lr-tb;text-anchor:start;fill:#ffb100;fill-opacity:1;stroke-width:0.26458332"
           y="156.82582"
           x="172.26265"
           id="tspan1091"
           sodipodi:role="line"><tspan
             id="tspan1089"
             style="font-style:normal;font-variant:normal;font-weight:bold;font-stretch:normal;font-size:8.46671867px;font-family:sans-serif;-inkscape-font-specification:'sans-serif, Bold';font-variant-ligatures:normal;font-variant-caps:normal;font-variant-numeric:normal;font-feature-settings:normal;text-align:start;writing-mode:lr-tb;text-anchor:start;fill:#ffb100;fill-opacity:1">eerbucket</tspan></tspan></text>
      <text
         xml:space="preserve"
         style="font-style:normal;font-variant:normal;font-weight:bold;font-stretch:normal;font-size:94.52129364px;line-height:1.25;font-family:sans-serif;-inkscape-font-specification:'sans-serif, Bold';font-variant-ligatures:normal;font-variant-caps:normal;font-variant-numeric:normal;font-feature-settings:normal;text-align:start;letter-spacing:0px;word-spacing:0px;writing-mode:lr-tb;text-anchor:start;opacity:1;fill:none;fill-opacity:1;stroke:#ec6b1a;stroke-width:1.37400007;stroke-linejoin:round;stroke-miterlimit:4;stroke-dasharray:none;stroke-opacity:1;enable-background:new"
         x="154.55035"
         y="178.40744"
         id="text1111"><tspan
           sodipodi:role="line"
           id="tspan1109"
           x="154.55035"
           y="178.40744"
           style="font-style:normal;font-variant:normal;font-weight:bold;font-stretch:normal;font-size:94.52129364px;font-family:sans-serif;-inkscape-font-specification:'sans-serif, Bold';font-variant-ligatures:normal;font-variant-caps:normal;font-variant-numeric:normal;font-feature-settings:normal;text-align:start;writing-mode:lr-tb;text-anchor:start;fill:none;fill-opacity:1;stroke:#ec6b1a;stroke-width:1.37400007;stroke-linejoin:round;stroke-miterlimit:4;stroke-dasharray:none;stroke-opacity:1"><tspan
             style="font-style:normal;font-variant:normal;font-weight:bold;font-stretch:normal;font-size:94.52129364px;font-family:sans-serif;-inkscape-font-specification:'sans-serif, Bold';font-variant-ligatures:normal;font-variant-caps:normal;font-variant-numeric:normal;font-feature-settings:normal;text-align:start;writing-mode:lr-tb;text-anchor:start;fill:none;fill-opacity:1;stroke:#ec6b1a;stroke-width:1.37400007;stroke-linejoin:round;stroke-miterlimit:4;stroke-dasharray:none;stroke-opacity:1"
             id="tspan1107">eerbucket</tspan></tspan></text>
    </g>
  </g>
</svg>
